#define cpu_width 11
#define cpu_height 11
static unsigned char cpu_bits[] = {
   0xff, 0x07, 0x21, 0x04, 0x21, 0x04, 0xf9, 0x04, 0x89, 0x04, 0x8f, 0x07,
   0x89, 0x04, 0xf9, 0x04, 0x21, 0x04, 0x21, 0x04, 0xff, 0x07 };
