#define battary_100_width 16
#define battary_100_height 16
static unsigned char battary_100_bits[] = {
   0x00, 0x00, 0x00, 0x00, 0x00, 0x00, 0xfe, 0xff, 0x02, 0x80, 0xfb, 0xbf,
   0xfb, 0xbf, 0xfb, 0xbf, 0xfb, 0xbf, 0xfb, 0xbf, 0x02, 0x80, 0xfe, 0xff,
   0x00, 0x00, 0x00, 0x00, 0x00, 0x00, 0x00, 0x00 };
